<svg height="512pt" viewBox="-141 0 512 512" width="512pt" xmlns="http://www.w3.org/2000/svg"><path d="m209.441406 131.191406c-12.621094-16.726562-29.648437-28.914062-49.441406-35.421875v-44.769531h-90v44.769531c-40.960938 13.46875-70 51.949219-70 96.816407v254.914062c0 16.410156 4.855469 32.011719 13.667969 43.921875 9.675781 13.078125 23.507812 20.578125 37.953125 20.578125 11.71875 0 22.804687-4.871094 31.691406-13.445312 8.882812 8.574218 19.96875 13.445312 31.6875 13.445312s22.804688-4.871094 31.6875-13.445312c8.886719 8.574218 19.972656 13.445312 31.691406 13.445312 14.445313 0 28.277344-7.5 37.953125-20.578125 8.8125-11.910156 13.667969-27.511719 13.667969-43.921875v-254.914062c0-22.332032-7.109375-43.5625-20.558594-61.394532zm0 0" fill="#99503d"/><path d="m209.441406 131.191406c-12.621094-16.726562-29.648437-28.914062-49.441406-35.421875v-44.769531h-45v461c11.71875 0 22.804688-4.871094 31.6875-13.445312 8.886719 8.574218 19.972656 13.445312 31.691406 13.445312 14.445313 0 28.277344-7.5 37.953125-20.578125 8.8125-11.910156 13.667969-27.511719 13.667969-43.921875v-254.914062c0-22.332032-7.109375-43.5625-20.558594-61.394532zm0 0" fill="#804231"/><path d="m0 221h230v170h-230zm0 0" fill="#ff583e"/><path d="m115 221h115v170h-115zm0 0" fill="#f92814"/><path d="m55 0h120v81h-120zm0 0" fill="#ede9e8"/><path d="m115 0h60v81h-60zm0 0" fill="#d2c5c2"/><path d="m230 299.769531v30.28125c-5.5.6875-10.449219 1.007813-14.960938 1.007813-18.4375 0-29.597656-5.308594-41.089843-12.199219-7.609375-4.558594-13.109375-7.859375-25.621094-7.859375-12.507813 0-18.007813 3.300781-25.609375 7.859375-9.019531 5.410156-20.230469 12.140625-41.058594 12.140625-20.820312 0-32.03125-6.730469-41.050781-12.140625-8.667969-5.199219-17-10.210937-40.609375-6.628906v-30.289063c27.960938-3.511718 41.75 2.617188 56.050781 11.199219 7.609375 4.558594 13.097657 7.859375 25.609375 7.859375 12.519532 0 18.011719-3.300781 25.621094-7.859375 9.007812-5.410156 20.230469-12.140625 41.046875-12.140625 20.820313 0 32.042969 6.730469 41.050781 12.140625 8.679688 5.210937 17.019532 10.210937 40.621094 6.628906zm0 0" fill="#ede9e8"/><path d="m189.378906 293.140625c-9.007812-5.410156-20.230468-12.140625-41.050781-12.140625-15.335937 0-25.457031 3.652344-33.328125 7.742188v34.515624c2.8125-1.460937 5.347656-2.972656 7.71875-4.398437 7.601562-4.558594 13.101562-7.859375 25.609375-7.859375 12.511719 0 18.011719 3.300781 25.621094 7.859375 11.492187 6.890625 22.652343 12.199219 41.089843 12.199219 4.511719 0 9.460938-.320313 14.960938-1.007813v-30.28125c-23.601562 3.582031-31.941406-1.417969-40.621094-6.628906zm0 0" fill="#d2c5c2"/></svg>