<?xml version="1.0" encoding="iso-8859-1"?>
<!-- Generator: Adobe Illustrator 16.0.0, SVG Export Plug-In . SVG Version: 6.00 Build 0)  -->
<!DOCTYPE svg PUBLIC "-//W3C//DTD SVG 1.1//EN" "http://www.w3.org/Graphics/SVG/1.1/DTD/svg11.dtd">
<svg version="1.1" id="Capa_1" xmlns="http://www.w3.org/2000/svg" xmlns:xlink="http://www.w3.org/1999/xlink" x="0px" y="0px"
	 width="13.861px" height="13.861px" viewBox="0 0 13.861 13.861" style="enable-background:new 0 0 13.861 13.861;"
	 xml:space="preserve">
<g>
	<g>
		<path d="M8.132,2.237l0.066-0.468c0.029-0.141,0.156-0.527,0.408-0.623c0.42-0.161,2.146-0.682,2.164-0.687L10.631,0
			C10.559,0.022,8.87,0.531,8.434,0.699C7.892,0.906,7.743,1.6,7.728,1.69L7.659,2.154C5.711,1.88,3.091,2.278,3.091,3.349
			c0,0.01,0.003,0.02,0.004,0.03c0,0.003-0.001,0.006,0,0.009l0.006,0.036L3.117,3.52l0.156,0.924l0.029,0.174l1.226,7.265
			c0,0.079,0.013,0.17,0.048,0.264c-0.388,0.164-0.644,0.397-0.644,0.705c0,0.694,1.286,1.01,2.481,1.01
			c1.196,0,2.481-0.316,2.481-1.01c0-0.307-0.253-0.539-0.638-0.703c0.03-0.082,0.041-0.16,0.04-0.226l1.23-7.306l0.028-0.171
			L9.711,3.52l0.017-0.095l0.006-0.037c0-0.003-0.002-0.006,0-0.009c0-0.01,0.004-0.02,0.004-0.03
			C9.735,2.804,9.056,2.434,8.132,2.237z M3.57,3.349c0-0.075,0.063-0.157,0.168-0.239c0.365-0.288,1.327-0.58,2.676-0.58
			c0.439,0,0.831,0.033,1.181,0.085L7.381,4.113C7.087,4.148,6.764,4.168,6.414,4.168C5.7,4.168,5.1,4.084,4.631,3.964
			c-0.255-0.065-0.473-0.14-0.639-0.22C3.887,3.693,3.805,3.641,3.738,3.588C3.633,3.506,3.57,3.424,3.57,3.349z M3.75,4.398
			L3.705,4.133C3.77,4.168,3.839,4.201,3.912,4.232c0.64,0.274,1.574,0.415,2.501,0.415c0.302,0,0.604-0.017,0.897-0.046
			l-0.07,0.507C6.983,5.131,6.711,5.147,6.414,5.147c-1.425,0-2.401-0.308-2.634-0.572L3.75,4.398z M8.416,12.854
			c0,0.153-0.701,0.529-2.002,0.529c-1.301,0-2.002-0.376-2.002-0.529c0-0.076,0.171-0.205,0.495-0.316
			c0.274,0.18,0.734,0.316,1.507,0.316c0.776,0,1.237-0.138,1.511-0.314C8.245,12.65,8.416,12.777,8.416,12.854z M7.819,11.883
			c0,0.04-0.012,0.078-0.03,0.114c-0.093,0.173-0.402,0.296-0.86,0.348c-0.156,0.019-0.327,0.029-0.516,0.029
			c-0.188,0-0.358-0.011-0.513-0.029c-0.44-0.051-0.741-0.172-0.849-0.352c-0.028-0.048-0.047-0.097-0.048-0.15l-1.13-6.716
			C4.475,5.406,5.447,5.55,6.414,5.55c0.258,0,0.515-0.011,0.766-0.031l-0.147,1.03C6.841,6.528,6.636,6.516,6.414,6.516
			c-0.977,0-1.674,0.217-1.939,0.43c-0.058,0.046-0.09,0.092-0.106,0.136C4.365,7.091,4.359,7.1,4.358,7.109l0.007,0.046
			C4.379,7.202,4.413,7.25,4.475,7.3c0.048,0.039,0.108,0.077,0.184,0.115C4.78,7.475,4.938,7.53,5.122,7.578
			c0.339,0.089,0.774,0.15,1.292,0.15c0.518,0,0.952-0.062,1.292-0.15C7.89,7.53,8.048,7.475,8.168,7.415
			C8.243,7.377,8.304,7.339,8.353,7.3c0.062-0.05,0.096-0.098,0.109-0.145l0.007-0.046C8.468,7.1,8.462,7.091,8.458,7.081
			C8.442,7.038,8.409,6.992,8.353,6.946c-0.15-0.121-0.445-0.242-0.847-0.325l0.165-1.157C8.17,5.394,8.62,5.282,8.954,5.127
			L7.819,11.883z M9.077,4.399L9.048,4.574c-0.15,0.172-0.619,0.361-1.316,0.473l0.072-0.511c0.417-0.069,0.799-0.171,1.111-0.304
			c0.072-0.031,0.142-0.064,0.208-0.099L9.077,4.399z M9.089,3.588C9.022,3.641,8.94,3.693,8.835,3.744
			c-0.166,0.08-0.385,0.155-0.639,0.22C8.096,3.99,7.987,4.013,7.875,4.034L8.065,2.7c0.481,0.11,0.834,0.26,1.023,0.409
			c0.105,0.083,0.168,0.165,0.168,0.239C9.257,3.424,9.194,3.506,9.089,3.588z"/>
		<path d="M8.353,7.466C8.304,7.501,8.243,7.537,8.168,7.57c-0.121,0.056-0.279,0.106-0.464,0.15
			c-0.338,0.084-0.773,0.141-1.29,0.141c-0.517,0-0.953-0.057-1.292-0.139C4.937,7.677,4.78,7.627,4.659,7.572
			c-0.076-0.035-0.136-0.07-0.184-0.106C4.413,7.42,4.379,7.375,4.365,7.332l0.756,4.492c0.003,0.019,0.005,0.039,0.005,0.059
			c0,0.143,0.35,0.371,1.287,0.371S7.7,12.027,7.7,11.883c0-0.02,0.002-0.04,0.004-0.06l0.757-4.491
			C8.448,7.375,8.414,7.42,8.353,7.466z"/>
	</g>
</g>
<g>
</g>
<g>
</g>
<g>
</g>
<g>
</g>
<g>
</g>
<g>
</g>
<g>
</g>
<g>
</g>
<g>
</g>
<g>
</g>
<g>
</g>
<g>
</g>
<g>
</g>
<g>
</g>
<g>
</g>
</svg>
