<?xml version="1.0" encoding="iso-8859-1"?>
<!-- Generator: Adobe Illustrator 19.0.0, SVG Export Plug-In . SVG Version: 6.00 Build 0)  -->
<svg version="1.1" id="Capa_1" xmlns="http://www.w3.org/2000/svg" xmlns:xlink="http://www.w3.org/1999/xlink" x="0px" y="0px"
	 viewBox="0 0 512 512" style="enable-background:new 0 0 512 512;" xml:space="preserve">
<g>
	<g>
		<path d="M386.348,336.165c23.574-34.148,37.408-75.546,37.408-120.19c0-117.015-94.843-211.878-211.878-211.878
			S0,98.959,0,215.974s94.843,211.878,211.878,211.878c48.849,0,93.8-16.572,129.637-44.338l124.388,124.388L512,461.812
			L386.348,336.165z M211.878,382.217c-91.667,0-166.243-74.574-166.243-166.243c0-91.667,74.574-166.243,166.243-166.243
			s166.243,74.574,166.243,166.243S303.545,382.217,211.878,382.217z"/>
	</g>
</g>
<g>
	<g>
		<path d="M191.738,85.575c-52.877,15.19-94.418,56.731-109.615,109.609l31.338,8.99c12.035-42.005,45.264-75.239,87.267-87.274
			L191.738,85.575z"/>
	</g>
</g>
<g>
</g>
<g>
</g>
<g>
</g>
<g>
</g>
<g>
</g>
<g>
</g>
<g>
</g>
<g>
</g>
<g>
</g>
<g>
</g>
<g>
</g>
<g>
</g>
<g>
</g>
<g>
</g>
<g>
</g>
</svg>
