<svg id="Layer_1" enable-background="new 0 0 511.872 511.872" height="512" viewBox="0 0 511.872 511.872" width="512" xmlns="http://www.w3.org/2000/svg"><g><g><path d="m315.621 462.728-11.921 9.855h-211.832c-22.474 0-40.325-18.194-40.325-40.636v-36.375c0-100.688-9.335-250.247-44.591-356.369h347.937c-23.651 71.191-33.253 146.518-39.268 221.01z" fill="#a5fffa"/><path d="m314.889 39.204c-23.651 71.191-33.253 146.518-39.268 221.01v204.265h40v-204.266c6.015-74.492 15.617-149.819 39.268-221.01h-40z" fill="#6efff7"/><g><g><path d="m332.887 127.064-304.7-1.9c18.33 92.868 23.356 193.42 23.356 270.408v30.462h264.078v-165.821c3.776-46.766 8.073-86.954 17.266-133.149z" fill="#9b4f1d"/></g><path d="m293.782 120.158c-9.192 46.194-14.385 93.289-18.161 140.055v165.821h40v-165.821c3.776-46.766 8.969-93.861 18.161-140.055z" fill="#8f491b"/><g><path d="m467.746 154.134c64.525 90.967 42.988 216.946-48.105 281.382s-217.246 42.928-281.771-48.038z" fill="#fed73a"/><path d="m467.746 154.134-27.716 19.606c48.867 88.715 24.323 201.854-60.389 261.776-29.633 20.961-62.976 32.819-96.701 36.158 46.761 4.632 95.344-6.904 136.701-36.158 91.093-64.436 112.631-190.415 48.105-281.382z" fill="#fc0"/><path d="m442.285 172.145c54.477 76.801 36.229 183.542-40.679 237.944-76.907 54.401-183.796 36.178-238.273-40.623z" fill="#fff1b5"/><g fill="#fed73a"><path d="m391.043 349.677c8.411 11.858 5.604 28.281-6.271 36.681s-28.32 5.596-36.732-6.262-29.652-62.184-17.777-70.584 52.369 28.306 60.78 40.165z"/><path d="m421.393 263.585c14.345 2.446 23.988 16.041 21.539 30.366s-16.063 23.955-30.407 21.509c-14.345-2.446-64.998-23.032-62.549-37.357 2.448-14.325 57.072-16.964 71.417-14.518z"/><path d="m421.066 187.155c8.412 11.858 5.604 28.281-6.271 36.681s-62.27 29.611-70.681 17.752z"/><path d="m256.644 380.123c-2.449 14.325 7.194 27.92 21.539 30.365 14.345 2.446 27.959-7.184 30.407-21.509 2.449-14.325-.193-68.874-14.538-71.319-14.344-2.446-34.96 48.138-37.408 62.463z"/><path d="m184.551 354.458c8.411 11.858 24.857 14.662 36.732 6.262s48.632-48.837 40.22-60.696z"/></g><path d="m320.349 258.399c6.862 9.674 4.572 23.071-5.116 29.924-9.687 6.853-23.103 4.565-29.965-5.109z" fill="#fff"/></g></g></g><g><path d="m473.251 149.753c-2.394-3.375-7.068-4.174-10.448-1.784l-138.039 97.644c5.527-63.222 14.799-135.284 37.628-204.003.992-5.716-1.38-9.004-7.117-9.865h-347.938c-5.737.861-8.109 4.149-7.117 9.865 13.292 40.01 44.208 154.597 44.208 354.004v36.375c0 26.542 21.454 48.136 47.825 48.136 70.074 0 140.177-.088 210.234-.088 41.887 0 84.167-12.477 120.872-38.44 45.708-32.332 76.064-80.506 85.479-135.648 9.408-55.108-3.23-110.579-35.587-156.196zm-55.719 55.728c-.846 4.955-3.573 9.283-7.682 12.189-4.913 3.476-18.652 10.08-32.283 14.69-5.379 1.819-9.857 3.049-13.546 3.856l53.386-37.764c.48 2.284.53 4.661.125 7.029zm-168.469 112.054c-1.988 3.209-4.64 7.025-8.147 11.495-8.875 11.305-19.667 22.052-24.577 25.525-6.306 4.46-14.435 4.497-20.662.744zm67.114-47.475c.05 1.008-.012 2.029-.186 3.048-.628 3.677-2.653 6.891-5.703 9.048-4.044 2.861-9.099 3.271-13.381 1.534zm-277.865-136.445h30.525c9.697 0 9.697-15 0-15h-33.358c-5.179-26.21-11.139-50.215-17.858-71.869h327.354c-7.457 23.833-13.37 47.944-18.144 71.869h-222.994c-9.697 0-9.697 15 0 15h220.141c-7.773 42.954-12.089 84.973-15.226 123.323l-175.826 124.374c-3.487 2.994-4.082 6.481-1.786 10.462 8.59 12.111 18.254 23.018 28.754 32.716h-100.467v-28.876c0-41.701-1.582-106.249-9.117-176.941-3.233-30.341-7.243-58.731-11.998-85.058zm53.941 331.511c-15.543 0-28.589-10.966-31.967-25.635h117.832c14.431 10.567 30.023 19.149 46.361 25.635zm401.799-161.702c-8.739 51.189-36.922 95.911-79.355 125.927-85.521 60.498-203.601 42.129-266.86-40.212l13.242-9.367c34.886 45.089 87.744 69.116 141.365 69.116 35.651 0 71.639-10.619 102.88-32.718 33.013-23.352 56.5-56.188 67.923-94.96 2.741-9.301-11.649-13.542-14.389-4.239-10.46 35.502-31.967 65.57-62.196 86.953-71.48 50.563-170.044 35.514-223.34-32.812l9.529-6.74c11.452 10.259 29.562 11.334 42.151 2.429 9.396-6.647 40.926-38.98 44.305-58.774.301-1.764.386-3.431.269-5.001l14.107-9.979c9.999 8.286 24.702 8.831 35.269 1.356 10.435-7.382 14.908-21.694 10.443-33.692l14.051-9.939c10.995 4.865 25.817.037 36.395-3.367 16.02-5.155 32.243-12.94 38.673-17.489 12.555-8.881 17.646-26.3 11.715-40.531l9.52-6.734c19.669 30.629 28.548 67.088 25.067 103.496-.924 9.652 14.01 11.083 14.932 1.428 3.823-39.983-6.01-80.024-27.745-113.591l13.235-9.362c26.9 41.123 37.126 90.115 28.814 138.802z"/><path d="m365.873 315.981c-19.225-14.593-32.113-18.605-40.554-12.635-20.466 14.476 5.484 66.235 15.991 81.045 25.012 35.265 80.747-3.136 55.236-39.096-4.555-6.423-17.274-19.143-30.673-29.314zm21.636 52.023c-2.745 16.076-24.528 21.012-33.965 7.709-8.493-11.973-25.52-44.515-19.477-60.002 9.238-.347 21.289 10.967 27.459 15.984 9.676 7.867 28.533 21.387 25.983 36.309z"/><path d="m422.04 256.149c-7.766-1.325-25.766-1.338-42.441.932-23.93 3.257-35.887 9.522-37.629 19.715-4.288 25.081 50.829 42.971 68.681 46.015 42.879 7.31 54.317-59.342 11.389-66.662zm12.885 36.495c-1.748 10.228-11.512 17.131-21.754 15.379-14.251-2.429-49.611-13.662-56.268-28.675 11.377-12.083 48.442-10.829 62.614-8.413 10.061 1.736 17.138 11.594 15.408 21.709z"/><path d="m294.7 310.224c-25.053-4.273-43.051 50.722-46.062 68.592-2.801 16.62 7.488 35.6 27.671 39.023 18.089 3.068 35.964-9.523 39.062-27.639 3.048-17.84 4.653-75.658-20.671-79.976zm5.885 77.449c-4.068 23.804-41.199 17.589-37.162-6.328 2.424-14.176 13.718-49.654 28.73-56.19 12.107 11.256 10.838 48.437 8.432 62.518z"/></g></g></svg>